
<svg width="20" height="16" viewBox="0 0 20 16" fill="none" xmlns="http://www.w3.org/2000/svg">
<path d="M1.10742 0.492188L18.9492 14.5547C19.125 14.7012 19.1836 15.0234 19.0078 15.1992C18.8613 15.4043 18.5684 15.4629 18.3633 15.2871L0.550781 1.22461C0.345703 1.07812 0.287109 0.755859 0.462891 0.580078C0.609375 0.375 0.931641 0.316406 1.10742 0.492188ZM17.6895 7.875L15.5215 10.0723L14.7891 9.48633L17.0156 7.23047C18.1289 6.11719 18.1289 4.35938 17.0156 3.24609C15.9316 2.16211 14.1445 2.16211 13.0605 3.24609L12.3867 3.91992C12.2109 4.0957 11.918 4.0957 11.7129 3.91992C11.5371 3.71484 11.5371 3.42188 11.7129 3.24609L12.3867 2.57227C13.8516 1.10742 16.2246 1.10742 17.6895 2.57227C19.1543 4.03711 19.1543 6.41016 17.6895 7.875ZM12.5039 12.4746C11.2148 12.8555 9.7793 12.5625 8.75391 11.5371C7.96289 10.7461 7.58203 9.69141 7.66992 8.63672L8.63672 9.39844C8.72461 9.95508 8.98828 10.4531 9.39844 10.8633C9.98438 11.4492 10.7754 11.7422 11.5371 11.6836L12.5039 12.4746ZM10.0723 4.91602V4.88672C9.48633 4.33008 8.69531 4.03711 7.93359 4.06641L6.9668 3.30469C8.25586 2.92383 9.7207 3.2168 10.7168 4.24219C11.5078 5.0332 11.8887 6.08789 11.8301 7.14258L10.834 6.38086C10.7461 5.82422 10.4824 5.32617 10.0723 4.91602ZM4.71094 6.29297L2.45508 8.54883C1.3418 9.66211 1.3418 11.4199 2.45508 12.5332C3.53906 13.6172 5.32617 13.6172 6.41016 12.5332L7.08398 11.8594C7.25977 11.6836 7.55273 11.6836 7.75781 11.8594C7.93359 12.0352 7.93359 12.3574 7.75781 12.5332L7.08398 13.1777C5.61914 14.6426 3.24609 14.6426 1.78125 13.1777C0.316406 11.7129 0.316406 9.33984 1.78125 7.875L3.94922 5.70703L4.71094 6.29297Z" fill="#B0901E"/>
</svg>
