<svg width="21" height="21" viewBox="0 0 21 21" fill="none" xmlns="http://www.w3.org/2000/svg">
<path d="M19.9531 15.4922L15.7734 16.2734L14.9922 20.4531C14.9531 20.6875 14.7969 20.8438 14.6016 20.9219C14.4062 21 14.1719 21 14.0156 20.8828L10.5 18.4219L6.94531 20.8828C6.78906 21 6.55469 21 6.35937 20.9219C6.16406 20.8438 6.00781 20.6875 5.96875 20.4531L5.22656 16.2734L1.00781 15.4922C0.773435 15.4531 0.617185 15.2969 0.53906 15.1016C0.460935 14.9063 0.460935 14.6719 0.578122 14.5156L3.03906 11L0.578122 7.44531C0.460935 7.28906 0.460935 7.05469 0.53906 6.85938C0.617185 6.66406 0.773435 6.50781 1.00781 6.46875L5.22656 5.72656L5.96875 1.50781C6.00781 1.27344 6.16406 1.11719 6.35937 1.03906C6.55469 0.960937 6.78906 0.960937 6.94531 1.07813L10.5 3.53906L14.0156 1.07813C14.1719 0.960937 14.4062 0.960937 14.6016 1.03906C14.7969 1.11719 14.9531 1.27344 14.9922 1.50781L15.7734 5.72656L19.9531 6.46875C20.1875 6.50781 20.3437 6.66406 20.4219 6.85938C20.5 7.05469 20.5 7.28906 20.3828 7.44531L17.9219 11L20.3828 14.5156C20.5 14.6719 20.5 14.9063 20.4219 15.1016C20.3437 15.2969 20.1875 15.4531 19.9531 15.4922ZM16.6719 11.3516C16.5156 11.1172 16.5156 10.8438 16.6719 10.6484L18.7812 7.52344L15.1094 6.85938C14.8359 6.82031 14.6406 6.625 14.6016 6.35156L13.9375 2.67969L10.8516 4.78906C10.6172 4.94531 10.3437 4.94531 10.1484 4.78906L7.02344 2.67969L6.35937 6.35156C6.32031 6.625 6.125 6.82031 5.85156 6.85938L2.17968 7.52344L4.28906 10.6094C4.44531 10.8438 4.44531 11.1172 4.28906 11.3516L2.17968 14.4375L5.85156 15.1016C6.125 15.1406 6.32031 15.3359 6.35937 15.6094L7.02344 19.2813L10.1094 17.1719C10.3437 17.0156 10.6172 17.0156 10.8516 17.1719L13.9375 19.2813L14.6016 15.6094C14.6406 15.3359 14.8359 15.1406 15.1094 15.1016L18.7812 14.4375L16.6719 11.3516ZM5.5 11C5.5 9.20313 6.4375 7.5625 8 6.66406C9.52344 5.76563 11.4375 5.76563 13 6.66406C14.5234 7.5625 15.5 9.20313 15.5 11C15.5 12.7578 14.5234 14.3984 13 15.2969C11.4375 16.1953 9.52344 16.1953 8 15.2969C6.4375 14.3984 5.5 12.7578 5.5 11ZM10.5 7.25C9.13281 7.25 7.92187 7.95313 7.21875 9.125C6.55469 10.2578 6.55469 11.7031 7.21875 12.875C7.92187 14.0078 9.13281 14.75 10.5 14.75C11.8281 14.75 13.0391 14.0078 13.7422 12.875C14.4062 11.7031 14.4062 10.2578 13.7422 9.125C13.0391 7.95313 11.8281 7.25 10.5 7.25Z" fill="#C9CED6"/>
</svg>