
<svg width="8" height="9" viewBox="0 0 8 9" fill="none" xmlns="http://www.w3.org/2000/svg">
<path d="M2.64959 6.44602V2.77699H4.40953C4.59514 2.77699 4.77412 2.82173 4.94647 2.91122C5.12213 2.9974 5.26631 3.12666 5.379 3.29901C5.495 3.46804 5.553 3.67685 5.553 3.92543C5.553 4.17401 5.49334 4.38944 5.37402 4.57173C5.25802 4.75071 5.10887 4.88826 4.92658 4.98438C4.7476 5.08049 4.562 5.12855 4.36976 5.12855H3.00755V4.62642H4.20073C4.36976 4.62642 4.52057 4.56676 4.65314 4.44744C4.78903 4.32481 4.85698 4.1508 4.85698 3.92543C4.85698 3.69342 4.78903 3.5277 4.65314 3.42827C4.52057 3.32884 4.37473 3.27912 4.21564 3.27912H3.29093V6.44602H2.64959ZM4.78738 4.74077L5.70215 6.44602H4.98624L4.09632 4.74077H4.78738ZM3.99689 8.63352C3.4467 8.63352 2.93132 8.53078 2.45073 8.32528C1.97014 8.11979 1.54756 7.83475 1.18297 7.47017C0.818389 7.10559 0.533351 6.683 0.327859 6.20241C0.122366 5.72183 0.0196201 5.20644 0.0196201 4.65625C0.0196201 4.10606 0.122366 3.59067 0.327859 3.11008C0.533351 2.6295 0.818389 2.20691 1.18297 1.84233C1.54756 1.47775 1.97014 1.19271 2.45073 0.987216C2.93132 0.781723 3.4467 0.678977 3.99689 0.678977C4.54708 0.678977 5.06247 0.781723 5.54306 0.987216C6.02364 1.19271 6.44623 1.47775 6.81081 1.84233C7.1754 2.20691 7.46043 2.6295 7.66593 3.11008C7.87142 3.59067 7.97417 4.10606 7.97417 4.65625C7.97417 5.20644 7.87142 5.72183 7.66593 6.20241C7.46043 6.683 7.1754 7.10559 6.81081 7.47017C6.44623 7.83475 6.02364 8.11979 5.54306 8.32528C5.06247 8.53078 4.54708 8.63352 3.99689 8.63352ZM3.99689 7.89276C4.59348 7.89276 5.13539 7.74692 5.6226 7.45526C6.11313 7.16359 6.50423 6.77415 6.7959 6.28693C7.08757 5.7964 7.2334 5.25284 7.2334 4.65625C7.2334 4.05966 7.08757 3.51776 6.7959 3.03054C6.50423 2.54001 6.11313 2.14891 5.6226 1.85724C5.13539 1.56558 4.59348 1.41974 3.99689 1.41974C3.4003 1.41974 2.85674 1.56558 2.36621 1.85724C1.879 2.14891 1.48955 2.54001 1.19789 3.03054C0.90622 3.51776 0.760387 4.05966 0.760387 4.65625C0.760387 5.25284 0.90622 5.7964 1.19789 6.28693C1.48955 6.77415 1.879 7.16359 2.36621 7.45526C2.85674 7.74692 3.4003 7.89276 3.99689 7.89276Z" fill="white" fill-opacity="0.5"/>
</svg>